# xmcd CD database file
#
# Track frame offsets:
#	150
#	11105
#	23004
#	34305
#	44352
#	53658
#	64780
#	75524
#	88400
#	100945
#	114500
#	127526
#	144087
#	156338
#	164929
#	176687
#	189635
#	200616
#	211807
#	225977
#
# Disc length: 3147 seconds
#
# Revision: 0
# Processed by: cddbd v1.5.2PL0 Copyright (c) Steve Scherf et al.
# Submitted via: CDex 1.79
#
DISCID=0b0c4914
DTITLE=Al Grant - The Jim Reeves Story
DYEAR=2009
DGENRE=Country
TTITLE0=He'll Have To Go
TTITLE1=Yonder Comes A Sucker
TTITLE2=Welcome To My World
TTITLE3=Stand At Your Window
TTITLE4=I Won't Forget You
TTITLE5=Moonlight And Roses
TTITLE6=You're The Only Good Thing
TTITLE7=Blue Skies
TTITLE8=Could I Be Falling In Love
TTITLE9=Roses Are Red
TTITLE10=Gentle Shepherd
TTITLE11=Memories Are Made Of This
TTITLE12=Softly and Tenderly
TTITLE13=From A Jack To A King
TTITLE14=There's That Smile Again
TTITLE15=Golden Memories and Silver Tears
TTITLE16=Am I That Easy To Forget
TTITLE17=How Can I Write On Paper
TTITLE18=We Could You And I
TTITLE19=Blue Boy
EXTD=YEAR: 2009
EXTT0=
EXTT1=
EXTT2=
EXTT3=
EXTT4=
EXTT5=
EXTT6=
EXTT7=
EXTT8=
EXTT9=
EXTT10=
EXTT11=
EXTT12=
EXTT13=
EXTT14=
EXTT15=
EXTT16=
EXTT17=
EXTT18=
EXTT19=
PLAYORDER=
